# Blender v2.93.5 OBJ File: ''
# www.blender.org
mtllib 3.mtl
o Cube.001
v 0.316810 0.142814 0.261396
v -0.303199 0.149511 0.261374
v -0.303199 -0.834927 0.264544
v 0.316810 -0.841624 0.264565
v 0.312314 -0.257630 -0.261026
v -0.307694 -0.250933 -0.261047
v -0.307694 0.756294 -0.264290
v 0.312314 0.749596 -0.264269
v 0.003389 0.743351 -0.261949
v 0.003389 0.745012 0.253917
v 0.062096 0.739230 0.253935
v 0.062096 0.737569 -0.261930
v 0.118546 0.722107 0.253990
v 0.118546 0.720446 -0.261875
v 0.170571 0.694299 0.254080
v 0.170571 0.692638 -0.261785
v 0.216171 0.656876 0.254200
v 0.216171 0.655215 -0.261665
v 0.253594 0.611276 0.254347
v 0.253594 0.609615 -0.261518
v 0.281402 0.559251 0.254515
v 0.281402 0.557590 -0.261351
v 0.298526 0.502801 0.254696
v 0.298526 0.501140 -0.261169
v 0.304309 0.444095 0.254885
v 0.304309 0.442434 -0.260980
v 0.298526 0.385388 0.255074
v 0.298526 0.383727 -0.260791
v 0.281402 0.328939 0.255256
v 0.281402 0.327278 -0.260609
v 0.253595 0.276914 0.255424
v 0.253595 0.275253 -0.260442
v 0.216171 0.231314 0.255571
v 0.216171 0.229653 -0.260295
v 0.170571 0.193891 0.255691
v 0.170571 0.192230 -0.260174
v 0.118546 0.166083 0.255781
v 0.118546 0.164422 -0.260085
v 0.062096 0.148960 0.255836
v 0.062096 0.147299 -0.260030
v 0.003389 0.143178 0.255854
v 0.003389 0.141517 -0.260011
v -0.055317 0.148960 0.255836
v -0.055317 0.147299 -0.260030
v -0.111767 0.166083 0.255781
v -0.111767 0.164422 -0.260085
v -0.163792 0.193891 0.255691
v -0.163792 0.192230 -0.260174
v -0.209392 0.231314 0.255571
v -0.209392 0.229653 -0.260295
v -0.246815 0.276914 0.255424
v -0.246815 0.275253 -0.260442
v -0.274623 0.328939 0.255256
v -0.274623 0.327278 -0.260609
v -0.291747 0.385388 0.255074
v -0.291747 0.383727 -0.260791
v -0.297530 0.444095 0.254885
v -0.297530 0.442434 -0.260980
v -0.291747 0.502801 0.254696
v -0.291747 0.501140 -0.261169
v -0.274623 0.559251 0.254515
v -0.274623 0.557590 -0.261351
v -0.246816 0.611276 0.254347
v -0.246816 0.609615 -0.261518
v -0.209392 0.656876 0.254200
v -0.209392 0.655215 -0.261665
v -0.163792 0.694299 0.254080
v -0.163792 0.692638 -0.261785
v -0.111767 0.722107 0.253990
v -0.111767 0.720446 -0.261875
v -0.055317 0.739230 0.253935
v -0.055317 0.737569 -0.261930
vt 0.625000 0.500000
vt 0.875000 0.500000
vt 0.875000 0.750000
vt 0.625000 0.750000
vt 0.375000 0.750000
vt 0.625000 1.000000
vt 0.375000 1.000000
vt 0.375000 0.000000
vt 0.625000 0.000000
vt 0.625000 0.250000
vt 0.375000 0.250000
vt 0.125000 0.500000
vt 0.375000 0.500000
vt 0.125000 0.750000
vt 1.000000 0.500000
vt 1.000000 1.000000
vt 0.968750 1.000000
vt 0.968750 0.500000
vt 0.937500 1.000000
vt 0.937500 0.500000
vt 0.906250 1.000000
vt 0.906250 0.500000
vt 0.875000 1.000000
vt 0.875000 0.500000
vt 0.843750 1.000000
vt 0.843750 0.500000
vt 0.812500 1.000000
vt 0.812500 0.500000
vt 0.781250 1.000000
vt 0.781250 0.500000
vt 0.750000 1.000000
vt 0.750000 0.500000
vt 0.718750 1.000000
vt 0.718750 0.500000
vt 0.687500 1.000000
vt 0.687500 0.500000
vt 0.656250 1.000000
vt 0.656250 0.500000
vt 0.625000 1.000000
vt 0.625000 0.500000
vt 0.593750 1.000000
vt 0.593750 0.500000
vt 0.562500 1.000000
vt 0.562500 0.500000
vt 0.531250 1.000000
vt 0.531250 0.500000
vt 0.500000 1.000000
vt 0.500000 0.500000
vt 0.468750 1.000000
vt 0.468750 0.500000
vt 0.437500 1.000000
vt 0.437500 0.500000
vt 0.406250 1.000000
vt 0.406250 0.500000
vt 0.375000 1.000000
vt 0.375000 0.500000
vt 0.343750 1.000000
vt 0.343750 0.500000
vt 0.312500 1.000000
vt 0.312500 0.500000
vt 0.281250 1.000000
vt 0.281250 0.500000
vt 0.250000 1.000000
vt 0.250000 0.500000
vt 0.218750 1.000000
vt 0.218750 0.500000
vt 0.187500 1.000000
vt 0.187500 0.500000
vt 0.156250 1.000000
vt 0.156250 0.500000
vt 0.125000 1.000000
vt 0.125000 0.500000
vt 0.093750 1.000000
vt 0.093750 0.500000
vt 0.062500 1.000000
vt 0.062500 0.500000
vt 0.296822 0.485388
vt 0.250000 0.490000
vt 0.203178 0.485388
vt 0.158156 0.471731
vt 0.116663 0.449553
vt 0.080294 0.419706
vt 0.050447 0.383337
vt 0.028269 0.341844
vt 0.014612 0.296822
vt 0.010000 0.250000
vt 0.014612 0.203178
vt 0.028269 0.158156
vt 0.050447 0.116663
vt 0.080294 0.080294
vt 0.116663 0.050447
vt 0.158156 0.028269
vt 0.203178 0.014612
vt 0.250000 0.010000
vt 0.296822 0.014612
vt 0.341844 0.028269
vt 0.383337 0.050447
vt 0.419706 0.080294
vt 0.449553 0.116663
vt 0.471731 0.158156
vt 0.485388 0.203178
vt 0.490000 0.250000
vt 0.485388 0.296822
vt 0.471731 0.341844
vt 0.449553 0.383337
vt 0.419706 0.419706
vt 0.383337 0.449553
vt 0.341844 0.471731
vt 0.031250 1.000000
vt 0.031250 0.500000
vt 0.000000 1.000000
vt 0.000000 0.500000
vt 0.750000 0.490000
vt 0.796822 0.485388
vt 0.841844 0.471731
vt 0.883337 0.449553
vt 0.919706 0.419706
vt 0.949553 0.383337
vt 0.971731 0.341844
vt 0.985388 0.296822
vt 0.990000 0.250000
vt 0.985388 0.203178
vt 0.971731 0.158156
vt 0.949553 0.116663
vt 0.919706 0.080294
vt 0.883337 0.050447
vt 0.841844 0.028269
vt 0.796822 0.014612
vt 0.750000 0.010000
vt 0.703178 0.014612
vt 0.658156 0.028269
vt 0.616663 0.050447
vt 0.580294 0.080294
vt 0.550447 0.116663
vt 0.528269 0.158156
vt 0.514611 0.203178
vt 0.510000 0.250000
vt 0.514611 0.296822
vt 0.528269 0.341844
vt 0.550447 0.383337
vt 0.580294 0.419706
vt 0.616663 0.449553
vt 0.658156 0.471731
vt 0.703178 0.485388
vn 0.0000 0.0032 1.0000
vn -0.0072 -0.6690 -0.7432
vn -1.0000 0.0000 0.0086
vn 0.0000 -0.0032 -1.0000
vn 1.0000 -0.0000 -0.0086
vn 0.0070 0.6548 0.7558
vn 0.0980 0.9952 -0.0032
vn 0.2903 0.9569 -0.0031
vn 0.4714 0.8819 -0.0028
vn 0.6344 0.7730 -0.0025
vn 0.7730 0.6344 -0.0020
vn 0.8819 0.4714 -0.0015
vn 0.9569 0.2903 -0.0009
vn 0.9952 0.0980 -0.0003
vn 0.9952 -0.0980 0.0003
vn 0.9569 -0.2903 0.0009
vn 0.8819 -0.4714 0.0015
vn 0.7730 -0.6344 0.0020
vn 0.6344 -0.7730 0.0025
vn 0.4714 -0.8819 0.0028
vn 0.2903 -0.9569 0.0031
vn 0.0980 -0.9952 0.0032
vn -0.0980 -0.9952 0.0032
vn -0.2903 -0.9569 0.0031
vn -0.4714 -0.8819 0.0028
vn -0.6344 -0.7730 0.0025
vn -0.7730 -0.6344 0.0020
vn -0.8819 -0.4714 0.0015
vn -0.9569 -0.2903 0.0009
vn -0.9952 -0.0980 0.0003
vn -0.9952 0.0980 -0.0003
vn -0.9569 0.2903 -0.0009
vn -0.8819 0.4714 -0.0015
vn -0.7730 0.6344 -0.0020
vn -0.6344 0.7730 -0.0025
vn -0.4714 0.8819 -0.0028
vn -0.2903 0.9569 -0.0031
vn -0.0980 0.9952 -0.0032
usemtl Material.002
s 1
f 1/1/1 2/2/1 3/3/1 4/4/1
f 5/5/2 4/4/2 3/6/2 6/7/2
f 6/8/3 3/9/3 2/10/3 7/11/3
f 7/12/4 8/13/4 5/5/4 6/14/4
f 8/13/5 1/1/5 4/4/5 5/5/5
f 7/11/6 2/10/6 1/1/6 8/13/6
f 9/15/7 10/16/7 11/17/7 12/18/7
f 12/18/8 11/17/8 13/19/8 14/20/8
f 14/20/9 13/19/9 15/21/9 16/22/9
f 16/22/10 15/21/10 17/23/10 18/24/10
f 18/24/11 17/23/11 19/25/11 20/26/11
f 20/26/12 19/25/12 21/27/12 22/28/12
f 22/28/13 21/27/13 23/29/13 24/30/13
f 24/30/14 23/29/14 25/31/14 26/32/14
f 26/32/15 25/31/15 27/33/15 28/34/15
f 28/34/16 27/33/16 29/35/16 30/36/16
f 30/36/17 29/35/17 31/37/17 32/38/17
f 32/38/18 31/37/18 33/39/18 34/40/18
f 34/40/19 33/39/19 35/41/19 36/42/19
f 36/42/20 35/41/20 37/43/20 38/44/20
f 38/44/21 37/43/21 39/45/21 40/46/21
f 40/46/22 39/45/22 41/47/22 42/48/22
f 42/48/23 41/47/23 43/49/23 44/50/23
f 44/50/24 43/49/24 45/51/24 46/52/24
f 46/52/25 45/51/25 47/53/25 48/54/25
f 48/54/26 47/53/26 49/55/26 50/56/26
f 50/56/27 49/55/27 51/57/27 52/58/27
f 52/58/28 51/57/28 53/59/28 54/60/28
f 54/60/29 53/59/29 55/61/29 56/62/29
f 56/62/30 55/61/30 57/63/30 58/64/30
f 58/64/31 57/63/31 59/65/31 60/66/31
f 60/66/32 59/65/32 61/67/32 62/68/32
f 62/68/33 61/67/33 63/69/33 64/70/33
f 64/70/34 63/69/34 65/71/34 66/72/34
f 66/72/35 65/71/35 67/73/35 68/74/35
f 68/74/36 67/73/36 69/75/36 70/76/36
f 11/77/1 10/78/1 71/79/1 69/80/1 67/81/1 65/82/1 63/83/1 61/84/1 59/85/1 57/86/1 55/87/1 53/88/1 51/89/1 49/90/1 47/91/1 45/92/1 43/93/1 41/94/1 39/95/1 37/96/1 35/97/1 33/98/1 31/99/1 29/100/1 27/101/1 25/102/1 23/103/1 21/104/1 19/105/1 17/106/1 15/107/1 13/108/1
f 70/76/37 69/75/37 71/109/37 72/110/37
f 72/110/38 71/109/38 10/111/38 9/112/38
f 9/113/4 12/114/4 14/115/4 16/116/4 18/117/4 20/118/4 22/119/4 24/120/4 26/121/4 28/122/4 30/123/4 32/124/4 34/125/4 36/126/4 38/127/4 40/128/4 42/129/4 44/130/4 46/131/4 48/132/4 50/133/4 52/134/4 54/135/4 56/136/4 58/137/4 60/138/4 62/139/4 64/140/4 66/141/4 68/142/4 70/143/4 72/144/4
