# Blender v2.93.5 OBJ File: ''
# www.blender.org
mtllib paleh.mtl
o Cube
v -0.000266 -0.000266 -0.429634
v -0.000266 0.429634 0.000266
v 0.429634 -0.000266 0.000266
v -0.000266 -0.429634 0.000266
v -0.000266 0.000266 -0.429634
v 0.429634 0.000266 0.000266
v 0.429634 -0.000266 -0.000266
v -0.000266 0.429634 -0.000266
v -0.000266 -0.000266 0.429634
v 0.429634 0.000266 -0.000266
v -0.000266 0.000266 0.429634
v -0.000266 -0.429634 -0.000266
v 0.000266 -0.000266 -0.429634
v -0.429634 -0.000266 0.000266
v 0.000266 0.429634 0.000266
v -0.429634 0.000266 0.000266
v 0.000266 0.000266 -0.429634
v 0.000266 -0.429634 0.000266
v -0.429634 -0.000266 -0.000266
v 0.000266 -0.000266 0.429634
v 0.000266 0.429634 -0.000266
v 0.000266 -0.429634 -0.000266
v 0.000266 0.000266 0.429634
v -0.429634 0.000266 -0.000266
vt 0.250077 0.625077
vt 0.249923 0.625077
vt 0.249923 0.624923
vt 0.250077 0.624923
vt 0.500077 0.125077
vt 0.499923 0.125077
vt 0.499923 0.124923
vt 0.500077 0.124923
vt 0.500077 0.875077
vt 0.499923 0.875077
vt 0.499923 0.874923
vt 0.500077 0.874923
vt 0.750077 0.625077
vt 0.749923 0.625077
vt 0.749923 0.624923
vt 0.750077 0.624923
vt 0.500077 0.625077
vt 0.499923 0.625077
vt 0.499923 0.624923
vt 0.500077 0.624923
vt 0.499923 0.374923
vt 0.625000 0.374923
vt 0.499923 0.500000
vt 0.249923 0.500000
vt 0.375000 0.625077
vt 0.499923 0.750000
vt 0.625000 0.875077
vt 0.625000 0.875077
vt 0.375000 0.624923
vt 0.249923 0.750000
vt 0.249923 0.750000
vt 0.499923 0.250000
vt 0.499923 0.250000
vt 0.625000 0.124923
vt 0.125000 0.625077
vt 0.250077 0.500000
vt 0.125000 0.625077
vt 0.499923 0.000000
vt 0.625000 0.125077
vt 0.250077 0.750000
vt 0.125000 0.624923
vt 0.500077 0.374923
vt 0.500077 0.000000
vt 0.499923 0.375077
vt 0.500077 0.375077
vt 0.625000 0.874923
vt 0.625000 0.375077
vn 0.0000 -1.0000 0.0000
vn -1.0000 0.0000 0.0000
vn 0.0000 0.0000 1.0000
vn 0.0000 1.0000 0.0000
vn 1.0000 0.0000 0.0000
vn 0.5774 0.5774 -0.5774
vn 0.5774 -0.5774 -0.5774
vn 0.5774 0.5774 0.5774
vn 0.5774 -0.5774 0.5774
vn -0.5774 0.5774 -0.5774
vn -0.5774 -0.5774 -0.5774
vn -0.5774 0.5774 0.5774
vn -0.5774 -0.5774 0.5774
vn 0.7071 0.7071 0.0000
vn 0.0000 0.7071 0.7071
vn -0.7071 0.0000 0.7071
vn 0.7071 0.0000 -0.7071
vn -0.7071 0.0000 -0.7071
vn 0.7071 0.0000 0.7071
vn 0.0000 -0.7071 -0.7071
vn -0.7071 -0.7071 0.0000
vn 0.0000 0.7071 -0.7071
vn 0.7071 -0.7071 0.0000
vn 0.0000 -0.7071 0.7071
vn -0.7071 0.7071 0.0000
vn 0.0000 0.0000 -1.0000
usemtl Material
s off
f 18/1/1 4/2/1 12/3/1 22/4/1
f 24/5/2 19/6/2 14/7/2 16/8/2
f 11/9/3 9/10/3 20/11/3 23/12/3
f 2/13/4 15/14/4 21/15/4 8/16/4
f 6/17/5 3/18/5 7/19/5 10/20/5
f 1/21/6 2/22/6 3/23/6
f 4/2/7 5/24/7 6/25/7
f 7/26/8 8/27/8 9/28/8
f 10/29/9 11/30/9 12/31/9
f 13/32/10 14/33/10 15/34/10
f 16/35/11 17/36/11 18/37/11
f 19/6/12 20/38/12 21/39/12
f 22/4/13 23/40/13 24/41/13
f 18/1/14 22/4/14 24/41/14 16/35/14
f 4/2/15 18/1/15 17/36/15 5/24/15
f 3/18/16 6/17/16 5/42/16 1/21/16
f 23/43/17 20/38/17 19/6/17 24/5/17
f 9/10/18 11/9/18 10/20/18 7/19/18
f 13/44/19 17/45/19 16/8/19 14/7/19
f 8/27/20 21/46/20 20/11/20 9/10/20
f 2/13/21 8/16/21 7/19/21 3/18/21
f 22/4/22 12/3/22 11/30/22 23/40/22
f 21/39/23 15/34/23 14/7/23 19/6/23
f 15/47/24 2/22/24 1/21/24 13/44/24
f 12/3/25 4/2/25 6/17/25 10/20/25
f 17/45/26 13/44/26 1/21/26 5/42/26
